<svg width="26" height="26" viewBox="0 0 26 26" fill="none" xmlns="http://www.w3.org/2000/svg">
<path d="M18.3957 0.0492554H6.82775C3.06287 0.0492554 0 3.11212 0 6.87701V18.4451C0 22.2098 3.06287 25.2727 6.82775 25.2727H18.3959C22.1606 25.2727 25.2234 22.2098 25.2234 18.4451V6.87701C25.2234 3.11212 22.1606 0.0492554 18.3957 0.0492554V0.0492554ZM23.7447 18.4451C23.7447 21.3944 21.3452 23.794 18.3957 23.794H6.82775C3.87823 23.794 1.4787 21.3944 1.4787 18.4451V6.87701C1.4787 3.92749 3.87823 1.52796 6.82775 1.52796H18.3959C21.3452 1.52796 23.7447 3.92749 23.7447 6.87701V18.4451Z" fill="white"/>
<path d="M12.8968 6C9.09385 6 6 9.09385 6 12.8968C6 16.6998 9.09385 19.7937 12.8968 19.7937C16.6998 19.7937 19.7937 16.6998 19.7937 12.8968C19.7937 9.09385 16.6998 6 12.8968 6ZM12.8968 18.315C9.90941 18.315 7.4787 15.8845 7.4787 12.8968C7.4787 9.90941 9.90941 7.4787 12.8968 7.4787C15.8845 7.4787 18.315 9.90941 18.315 12.8968C18.315 15.8845 15.8845 18.315 12.8968 18.315Z" fill="white"/>
<path d="M19.6735 3.31477C18.5496 3.31477 17.6356 4.22905 17.6356 5.3527C17.6356 6.47655 18.5496 7.39083 19.6735 7.39083C20.7973 7.39083 21.7116 6.47655 21.7116 5.3527C21.7116 4.22885 20.7973 3.31477 19.6735 3.31477ZM19.6735 5.91193C19.3652 5.91193 19.1143 5.66099 19.1143 5.3527C19.1143 5.04422 19.3652 4.79347 19.6735 4.79347C19.982 4.79347 20.2329 5.04422 20.2329 5.3527C20.2329 5.66099 19.982 5.91193 19.6735 5.91193Z" fill="white"/>
</svg>
